<svg xmlns="http://www.w3.org/2000/svg" viewBox="0 0 54.25 62"><defs><style>.cls-1{fill:#e2e5e7;}.cls-2{fill:#b0b7bd;}.cls-3{fill:#cad1d8;}.cls-4{fill:#1f6e43;}.cls-5{font-size:16px;fill:#fff;font-family:Nunito-Regular, Nunito;letter-spacing:0.01em;}.cls-6{letter-spacing:-0.02em;}.cls-7{letter-spacing:0.01em;}</style></defs><g id="Layer_2" data-name="Layer 2"><g id="Layer_1-2" data-name="Layer 1"><path class="cls-1" d="M10.63,0A3.88,3.88,0,0,0,6.75,3.88V58.13A3.88,3.88,0,0,0,10.63,62H49.38a3.88,3.88,0,0,0,3.87-3.87V15.5L37.75,0Z"/><path class="cls-2" d="M42.63,15.5H54.25L38.75,0V11.63A3.88,3.88,0,0,0,42.63,15.5Z"/><path class="cls-3" d="M54.25,27.13,42.63,15.5H54.25Z"/><path class="cls-4" d="M46.5,50.38a1.94,1.94,0,0,1-1.94,1.93H1.94A1.94,1.94,0,0,1,0,50.38V31a1.94,1.94,0,0,1,1.94-1.94H44.56A1.94,1.94,0,0,1,46.5,31Z"/><text class="cls-5" transform="translate(8.36 46.46)">X<tspan class="cls-6" x="10.46" y="0">L</tspan><tspan class="cls-7" x="19.32" y="0">S</tspan></text></g></g></svg>